# xmcd
#
# Track frame offsets: 
#        150
#        11548
#        23891
#        35675
#        54541
#        67834
#        81977
#        101214
#        113060
#        133639
#
# Disc length: 1977 seconds
#
# Revision: 0
# Processed by: cddbd v1.5.2PL0 Copyright (c) Steve Scherf et al.
# Submitted via: ExactAudioCopy v0.99pb3
#
DISCID=8007b70a
DTITLE=Frank Sinatra pres.The Blue Eyes Big Band - The Blue Eyes Big B
DTITLE=and pres. Frank Sinatra
DYEAR=2001
DGENRE=Oldies
TTITLE0=Frank Sinatra - The Lady is a Tramp
TTITLE1=Frank Sinatra - Nice and easy
TTITLE2=Frank Sinatra - S'wonderful
TTITLE3=Frank Sinatra - Mack the Knife
TTITLE4=Frank Sinatra - Strangers in the Night
TTITLE5=Frank Sinatra - Theycan't take that away from me
TTITLE6=Frank Sinatra - Ol' Man River
TTITLE7=Frank Sinatra - Bad bad Leroy Brown
TTITLE8=Frank Sinatra - My Way
TTITLE9=Frank Sinatra - New York , New York
EXTD=
EXTT0=
EXTT1=
EXTT2=
EXTT3=
EXTT4=
EXTT5=
EXTT6=
EXTT7=
EXTT8=
EXTT9=
PLAYORDER=
